<svg width="46" height="46" viewBox="0 0 46 46" fill="none" xmlns="http://www.w3.org/2000/svg">
<path d="M11.5 42.1668H40.25V38.3335H11.523C10.6375 38.3105 9.58333 37.9597 9.58333 36.4168C9.58333 34.8739 10.6375 34.5232 11.523 34.5002H40.25V7.66683C40.25 6.65017 39.8461 5.67514 39.1272 4.95625C38.4084 4.23736 37.4333 3.8335 36.4167 3.8335H11.5C9.1885 3.8335 5.75 5.36491 5.75 9.5835V36.4168C5.75 40.6354 9.1885 42.1668 11.5 42.1668ZM15.3333 13.4168H21.0833V9.5835H24.9167V13.4168H30.6667V17.2502H24.9167V28.7502H21.0833V17.2502H15.3333V13.4168Z" fill="#F36F21"/>
</svg>
