<svg width="56" height="56" viewBox="0 0 56 56" fill="none" xmlns="http://www.w3.org/2000/svg">
<path d="M24.1718 11.2C23.7607 10.7817 23.2494 10.4756 22.6865 10.311C22.1236 10.1463 21.5279 10.1286 20.9562 10.2594C20.3793 10.3869 19.844 10.6584 19.4003 11.0485C18.9566 11.4386 18.6189 11.9348 18.4187 12.4906L6.62804 44.8875C6.44417 45.4148 6.38831 45.9782 6.46508 46.5313C6.54185 47.0844 6.74904 47.6114 7.06955 48.0686C7.39007 48.5259 7.81472 48.9004 8.30847 49.1612C8.80222 49.4221 9.35092 49.5617 9.90929 49.5688C10.3184 49.5694 10.7248 49.5029 11.1124 49.3719L43.5093 37.5813C44.0651 37.381 44.5613 37.0433 44.9514 36.5996C45.3416 36.1559 45.613 35.6207 45.7405 35.0437C45.8714 34.472 45.8536 33.8764 45.6889 33.3135C45.5243 32.7506 45.2182 32.2392 44.7999 31.8281L24.1718 11.2ZM13.9562 34.9563L18.1562 23.4062L32.5937 37.8438L21.0437 42.0437L13.9562 34.9563ZM34.9999 15.75C35.0321 14.5665 35.3155 13.4033 35.8312 12.3375C36.9905 10.0188 39.178 8.75 41.9999 8.75C43.4655 8.75 44.4062 8.24687 44.9968 7.175C45.2979 6.56802 45.4692 5.90498 45.4999 5.22812C45.4999 4.99933 45.5453 4.77281 45.6335 4.56171C45.7217 4.3506 45.851 4.15912 46.0138 3.99836C46.1766 3.8376 46.3697 3.71076 46.5819 3.62521C46.7941 3.53966 47.0211 3.4971 47.2499 3.5C47.714 3.5 48.1592 3.68437 48.4873 4.01256C48.8155 4.34075 48.9999 4.78587 48.9999 5.25C48.9999 8.07187 47.1405 12.25 41.9999 12.25C40.5343 12.25 39.5937 12.7531 39.003 13.825C38.7019 14.432 38.5306 15.095 38.4999 15.7719C38.4999 16.0007 38.4545 16.2272 38.3663 16.4383C38.2781 16.6494 38.1488 16.8409 37.986 17.0016C37.8232 17.1624 37.6302 17.2892 37.418 17.3748C37.2058 17.4603 36.9787 17.5029 36.7499 17.5C36.2858 17.5 35.8407 17.3156 35.5125 16.9874C35.1843 16.6592 34.9999 16.2141 34.9999 15.75V15.75ZM29.7499 8.75V3.5C29.7499 3.03587 29.9343 2.59075 30.2625 2.26256C30.5907 1.93437 31.0358 1.75 31.4999 1.75C31.964 1.75 32.4092 1.93437 32.7373 2.26256C33.0655 2.59075 33.2499 3.03587 33.2499 3.5V8.75C33.2499 9.21413 33.0655 9.65925 32.7373 9.98744C32.4092 10.3156 31.964 10.5 31.4999 10.5C31.0358 10.5 30.5907 10.3156 30.2625 9.98744C29.9343 9.65925 29.7499 9.21413 29.7499 8.75ZM51.9968 26.7531C52.3254 27.0849 52.5098 27.533 52.5098 28C52.5098 28.467 52.3254 28.9151 51.9968 29.2469C51.6623 29.5703 51.2152 29.7511 50.7499 29.7511C50.2846 29.7511 49.8375 29.5703 49.503 29.2469L46.003 25.7469C45.724 25.4069 45.5814 24.9752 45.6029 24.5359C45.6245 24.0965 45.8087 23.6809 46.1198 23.3699C46.4308 23.0588 46.8464 22.8746 47.2858 22.853C47.7251 22.8315 48.1568 22.9741 48.4968 23.2531L51.9968 26.7531ZM53.0468 17.4125L47.7968 19.1625C47.621 19.2233 47.4359 19.2529 47.2499 19.25C46.8337 19.2501 46.4311 19.1019 46.1143 18.8319C45.7976 18.5619 45.5874 18.1879 45.5215 17.7769C45.4557 17.366 45.5384 16.945 45.755 16.5895C45.9715 16.2341 46.3076 15.9675 46.703 15.8375L51.953 14.0875C52.1714 14.0157 52.4017 13.9876 52.6309 14.0048C52.8601 14.022 53.0836 14.0841 53.2888 14.1877C53.4939 14.2913 53.6767 14.4343 53.8266 14.6085C53.9765 14.7828 54.0906 14.9848 54.1624 15.2031C54.2342 15.4214 54.2623 15.6518 54.2451 15.881C54.2279 16.1102 54.1658 16.3337 54.0622 16.5389C53.9586 16.744 53.8156 16.9268 53.6414 17.0767C53.4671 17.2266 53.2651 17.3407 53.0468 17.4125Z" fill="#ED1C24"/>
</svg>
