<svg width="515" height="46" viewBox="0 0 515 46" fill="none" xmlns="http://www.w3.org/2000/svg">
<path d="M18.7476 35H10.6876V7.804H0.703594V4.372H28.6796V7.804H18.7476V35ZM40.6197 35H32.6117V2.864H40.6197V14.564C41.521 13.0387 42.6824 11.9293 44.1037 11.236C45.5597 10.508 47.189 10.144 48.9917 10.144C51.7304 10.144 53.9664 10.9933 55.6997 12.692C57.433 14.3907 58.2997 16.8 58.2997 19.92V35H50.2397V20.596C50.2397 18.6893 49.8237 17.3027 48.9917 16.436C48.1597 15.5693 46.981 15.136 45.4557 15.136C43.965 15.136 42.7864 15.5693 41.9197 16.436C41.053 17.3027 40.6197 18.6893 40.6197 20.596V35ZM76.7126 35.572C74.8752 35.572 73.1419 35.3293 71.5126 34.844C69.9179 34.324 68.5139 33.5613 67.3006 32.556C66.1219 31.516 65.1859 30.1987 64.4926 28.604C63.8339 27.0093 63.5046 25.1027 63.5046 22.884C63.5046 20.7 63.8512 18.8107 64.5446 17.216C65.2726 15.5867 66.2432 14.252 67.4566 13.212C68.6699 12.172 70.0739 11.4093 71.6686 10.924C73.2632 10.404 74.9446 10.144 76.7126 10.144C78.5152 10.144 80.1792 10.3693 81.7046 10.82C83.2646 11.2707 84.6339 11.9467 85.8126 12.848C87.0259 13.7147 87.9619 14.824 88.6206 16.176C89.2792 17.4933 89.6086 19.036 89.6086 20.804C89.6086 21.1507 89.5912 21.532 89.5566 21.948C89.5566 22.3293 89.5219 22.7453 89.4526 23.196H72.0326C72.0326 23.4733 72.0152 23.7507 71.9806 24.028C71.9806 24.2707 71.9806 24.5133 71.9806 24.756C71.9806 27.5987 72.3966 29.5573 73.2286 30.632C74.0606 31.7067 75.2219 32.244 76.7126 32.244C78.0646 32.244 79.0699 31.8973 79.7286 31.204C80.3872 30.5107 80.7166 29.384 80.7166 27.824C80.7166 27.72 80.7166 27.5987 80.7166 27.46C80.7166 27.3213 80.7166 27.1827 80.7166 27.044H89.1926C89.1926 27.148 89.1926 27.252 89.1926 27.356C89.1926 27.4253 89.1926 27.4947 89.1926 27.564C89.1926 29.1933 88.6552 30.6147 87.5806 31.828C86.5406 33.0067 85.0672 33.9253 83.1606 34.584C81.2886 35.2427 79.1392 35.572 76.7126 35.572ZM72.1366 20.024H80.9246C80.9592 19.92 80.9766 19.7987 80.9766 19.66C80.9766 19.5213 80.9766 19.4 80.9766 19.296C80.9766 17.2853 80.5779 15.812 79.7806 14.876C78.9832 13.94 77.9086 13.472 76.5566 13.472C75.2046 13.472 74.1299 13.9573 73.3326 14.928C72.5352 15.864 72.1366 17.3547 72.1366 19.4C72.1366 19.504 72.1366 19.608 72.1366 19.712C72.1366 19.816 72.1366 19.92 72.1366 20.024ZM114.052 35H105.992V4.372H119.772C122.406 4.372 124.712 4.684 126.688 5.308C128.698 5.932 130.258 6.90266 131.368 8.22C132.477 9.53733 133.032 11.236 133.032 13.316C133.032 15.3613 132.477 17.0427 131.368 18.36C130.258 19.6427 128.698 20.596 126.688 21.22C124.712 21.844 122.406 22.156 119.772 22.156H114.052V35ZM133.968 35H125.128L122.164 26.316C121.817 25.2413 121.453 24.4093 121.072 23.82C120.69 23.2307 120.188 22.8147 119.564 22.572C118.974 22.2947 118.142 22.156 117.068 22.156H115.872L120.604 20.128L124.816 21.376C126.653 21.8613 128.022 22.5373 128.924 23.404C129.825 24.236 130.536 25.3973 131.056 26.888L133.968 35ZM114.052 7.752V18.88H118.472C120.517 18.88 122.042 18.412 123.048 17.476C124.088 16.5053 124.608 15.1187 124.608 13.316C124.608 11.5133 124.088 10.144 123.048 9.208C122.042 8.23733 120.517 7.752 118.472 7.752H114.052ZM148.177 35H140.117V4.372H148.177V35ZM169.344 35.52C166.848 35.52 164.629 35.208 162.688 34.584C160.747 33.96 159.1 33.0067 157.748 31.724C156.431 30.4413 155.408 28.812 154.68 26.836C153.987 24.8253 153.64 22.4507 153.64 19.712C153.64 16.9387 153.987 14.564 154.68 12.588C155.408 10.5773 156.448 8.93067 157.8 7.648C159.152 6.36533 160.816 5.412 162.792 4.788C164.803 4.164 167.073 3.852 169.604 3.852C174.111 3.852 177.629 4.632 180.16 6.192C182.691 7.752 183.956 9.84933 183.956 12.484C183.956 12.6573 183.939 12.8653 183.904 13.108C183.904 13.316 183.869 13.524 183.8 13.732H175.22C175.255 13.4893 175.272 13.2467 175.272 13.004C175.307 12.7613 175.324 12.536 175.324 12.328C175.324 10.5253 174.839 9.19067 173.868 8.324C172.932 7.42267 171.58 6.972 169.812 6.972C168.079 6.972 166.623 7.44 165.444 8.376C164.3 9.27733 163.433 10.664 162.844 12.536C162.289 14.408 162.012 16.8 162.012 19.712C162.012 22.5893 162.289 24.9813 162.844 26.888C163.433 28.76 164.283 30.164 165.392 31.1C166.501 32.0013 167.888 32.452 169.552 32.452C171.389 32.452 172.811 31.9667 173.816 30.996C174.821 29.9907 175.324 28.4653 175.324 26.42C175.324 26.2467 175.307 26.056 175.272 25.848C175.272 25.64 175.255 25.432 175.22 25.224L183.8 25.172C183.869 25.38 183.904 25.6053 183.904 25.848C183.939 26.056 183.956 26.264 183.956 26.472C183.956 27.9627 183.609 29.28 182.916 30.424C182.223 31.5333 181.217 32.4693 179.9 33.232C178.617 33.9947 177.075 34.5667 175.272 34.948C173.504 35.3293 171.528 35.52 169.344 35.52ZM217.557 35H209.549V4.372H217.557V35ZM197.485 35H189.425V4.372H197.485V35ZM213.605 21.22H194.313V17.892H213.605V21.22ZM258.047 35H235.687V4.372H258.047V7.804H243.747V17.892H257.007V21.324H243.747V31.62H258.047V35ZM287.796 35H278.124L261.224 10.664H270.74L287.796 35ZM265.592 35H260.912L282.7 10.664H287.432L265.592 35ZM299.96 45.712H291.952V10.664H297.62C298.174 10.9413 298.66 11.4267 299.076 12.12C299.492 12.7787 299.752 13.6453 299.856 14.72L299.076 14.616C299.942 13.0907 301.104 11.964 302.56 11.236C304.016 10.508 305.628 10.144 307.396 10.144C309.51 10.144 311.434 10.5947 313.168 11.496C314.901 12.3627 316.288 13.732 317.328 15.604C318.402 17.476 318.94 19.8853 318.94 22.832C318.94 25.7093 318.402 28.084 317.328 29.956C316.288 31.828 314.884 33.232 313.116 34.168C311.382 35.104 309.441 35.572 307.292 35.572C305.142 35.572 303.409 35.1907 302.092 34.428C300.809 33.6307 299.769 32.5213 298.972 31.1L299.96 30.684V45.712ZM305.212 31.672C306.217 31.672 307.101 31.412 307.864 30.892C308.626 30.3373 309.233 29.4187 309.684 28.136C310.169 26.8187 310.412 25.0507 310.412 22.832C310.412 20.5787 310.169 18.8107 309.684 17.528C309.233 16.2453 308.626 15.344 307.864 14.824C307.101 14.2693 306.217 13.992 305.212 13.992C304.172 13.992 303.253 14.2693 302.456 14.824C301.693 15.344 301.086 16.2453 300.636 17.528C300.185 18.8107 299.96 20.5787 299.96 22.832C299.96 25.0507 300.185 26.8187 300.636 28.136C301.086 29.4187 301.693 30.3373 302.456 30.892C303.253 31.412 304.172 31.672 305.212 31.672ZM336.154 35.572C334.317 35.572 332.583 35.3293 330.954 34.844C329.359 34.324 327.955 33.5613 326.742 32.556C325.563 31.516 324.627 30.1987 323.934 28.604C323.275 27.0093 322.946 25.1027 322.946 22.884C322.946 20.7 323.293 18.8107 323.986 17.216C324.714 15.5867 325.685 14.252 326.898 13.212C328.111 12.172 329.515 11.4093 331.11 10.924C332.705 10.404 334.386 10.144 336.154 10.144C337.957 10.144 339.621 10.3693 341.146 10.82C342.706 11.2707 344.075 11.9467 345.254 12.848C346.467 13.7147 347.403 14.824 348.062 16.176C348.721 17.4933 349.05 19.036 349.05 20.804C349.05 21.1507 349.033 21.532 348.998 21.948C348.998 22.3293 348.963 22.7453 348.894 23.196H331.474C331.474 23.4733 331.457 23.7507 331.422 24.028C331.422 24.2707 331.422 24.5133 331.422 24.756C331.422 27.5987 331.838 29.5573 332.67 30.632C333.502 31.7067 334.663 32.244 336.154 32.244C337.506 32.244 338.511 31.8973 339.17 31.204C339.829 30.5107 340.158 29.384 340.158 27.824C340.158 27.72 340.158 27.5987 340.158 27.46C340.158 27.3213 340.158 27.1827 340.158 27.044H348.634C348.634 27.148 348.634 27.252 348.634 27.356C348.634 27.4253 348.634 27.4947 348.634 27.564C348.634 29.1933 348.097 30.6147 347.022 31.828C345.982 33.0067 344.509 33.9253 342.602 34.584C340.73 35.2427 338.581 35.572 336.154 35.572ZM331.578 20.024H340.366C340.401 19.92 340.418 19.7987 340.418 19.66C340.418 19.5213 340.418 19.4 340.418 19.296C340.418 17.2853 340.019 15.812 339.222 14.876C338.425 13.94 337.35 13.472 335.998 13.472C334.646 13.472 333.571 13.9573 332.774 14.928C331.977 15.864 331.578 17.3547 331.578 19.4C331.578 19.504 331.578 19.608 331.578 19.712C331.578 19.816 331.578 19.92 331.578 20.024ZM362.268 35H354.26V10.664H359.564C360.153 10.9413 360.656 11.4093 361.072 12.068C361.488 12.7267 361.731 13.68 361.8 14.928C362.424 13.3333 363.36 12.1373 364.608 11.34C365.856 10.5427 367.312 10.144 368.976 10.144C370.709 10.144 372.148 10.5253 373.292 11.288C374.471 12.0507 375.337 13.056 375.892 14.304C376.481 15.5173 376.776 16.8693 376.776 18.36C376.776 19.0187 376.707 19.712 376.568 20.44C376.429 21.1333 376.221 21.792 375.944 22.416H368.352C368.491 21.896 368.595 21.376 368.664 20.856C368.733 20.336 368.768 19.8507 368.768 19.4C368.768 18.0827 368.508 17.0427 367.988 16.28C367.468 15.4827 366.705 15.084 365.7 15.084C364.695 15.084 363.863 15.552 363.204 16.488C362.58 17.3893 362.268 18.932 362.268 21.116V35ZM389.59 35H381.582V10.82H389.59V35ZM385.586 8.48C384.303 8.48 383.228 8.116 382.362 7.388C381.53 6.62533 381.114 5.672 381.114 4.528C381.114 3.384 381.53 2.448 382.362 1.72C383.228 0.95733 384.303 0.575997 385.586 0.575997C386.868 0.575997 387.926 0.95733 388.758 1.72C389.59 2.448 390.006 3.384 390.006 4.528C390.006 5.672 389.59 6.62533 388.758 7.388C387.926 8.116 386.868 8.48 385.586 8.48ZM408.263 35.572C406.426 35.572 404.693 35.3293 403.063 34.844C401.469 34.324 400.065 33.5613 398.851 32.556C397.673 31.516 396.737 30.1987 396.043 28.604C395.385 27.0093 395.055 25.1027 395.055 22.884C395.055 20.7 395.402 18.8107 396.095 17.216C396.823 15.5867 397.794 14.252 399.007 13.212C400.221 12.172 401.625 11.4093 403.219 10.924C404.814 10.404 406.495 10.144 408.263 10.144C410.066 10.144 411.73 10.3693 413.255 10.82C414.815 11.2707 416.185 11.9467 417.363 12.848C418.577 13.7147 419.513 14.824 420.171 16.176C420.83 17.4933 421.159 19.036 421.159 20.804C421.159 21.1507 421.142 21.532 421.107 21.948C421.107 22.3293 421.073 22.7453 421.003 23.196H403.583C403.583 23.4733 403.566 23.7507 403.531 24.028C403.531 24.2707 403.531 24.5133 403.531 24.756C403.531 27.5987 403.947 29.5573 404.779 30.632C405.611 31.7067 406.773 32.244 408.263 32.244C409.615 32.244 410.621 31.8973 411.279 31.204C411.938 30.5107 412.267 29.384 412.267 27.824C412.267 27.72 412.267 27.5987 412.267 27.46C412.267 27.3213 412.267 27.1827 412.267 27.044H420.743C420.743 27.148 420.743 27.252 420.743 27.356C420.743 27.4253 420.743 27.4947 420.743 27.564C420.743 29.1933 420.206 30.6147 419.131 31.828C418.091 33.0067 416.618 33.9253 414.711 34.584C412.839 35.2427 410.69 35.572 408.263 35.572ZM403.687 20.024H412.475C412.51 19.92 412.527 19.7987 412.527 19.66C412.527 19.5213 412.527 19.4 412.527 19.296C412.527 17.2853 412.129 15.812 411.331 14.876C410.534 13.94 409.459 13.472 408.107 13.472C406.755 13.472 405.681 13.9573 404.883 14.928C404.086 15.864 403.687 17.3547 403.687 19.4C403.687 19.504 403.687 19.608 403.687 19.712C403.687 19.816 403.687 19.92 403.687 20.024ZM434.378 35H426.369V10.664H432.038C432.558 10.9413 433.026 11.4267 433.442 12.12C433.892 12.7787 434.17 13.6453 434.274 14.72C435.175 13.16 436.354 12.016 437.81 11.288C439.266 10.5253 440.912 10.144 442.75 10.144C445.488 10.144 447.724 10.9933 449.458 12.692C451.191 14.3907 452.058 16.8 452.058 19.92V35H443.998V20.596C443.998 18.6893 443.582 17.3027 442.75 16.436C441.918 15.5693 440.739 15.136 439.214 15.136C437.723 15.136 436.544 15.5693 435.678 16.436C434.811 17.3027 434.378 18.6893 434.378 20.596V35ZM470.73 35.572C467.992 35.572 465.6 35.1213 463.554 34.22C461.544 33.3187 459.984 31.932 458.874 30.06C457.8 28.1533 457.262 25.7613 457.262 22.884C457.262 19.9373 457.834 17.528 458.978 15.656C460.122 13.784 461.717 12.3973 463.762 11.496C465.842 10.5947 468.252 10.144 470.99 10.144C473.417 10.144 475.601 10.456 477.542 11.08C479.484 11.704 481.026 12.6227 482.17 13.836C483.314 15.0147 483.886 16.4533 483.886 18.152C483.886 18.36 483.869 18.568 483.834 18.776C483.834 18.9493 483.834 19.14 483.834 19.348H474.994C475.029 19.14 475.046 18.9493 475.046 18.776C475.046 18.568 475.046 18.3773 475.046 18.204C475.046 16.748 474.648 15.6213 473.85 14.824C473.088 13.992 472.065 13.576 470.782 13.576C469.708 13.576 468.789 13.888 468.026 14.512C467.298 15.136 466.726 16.124 466.31 17.476C465.929 18.828 465.738 20.6307 465.738 22.884C465.738 25.1027 465.929 26.888 466.31 28.24C466.726 29.592 467.298 30.58 468.026 31.204C468.789 31.7933 469.708 32.088 470.782 32.088C471.58 32.088 472.308 31.9667 472.966 31.724C473.625 31.4467 474.128 30.944 474.474 30.216C474.856 29.488 475.046 28.4133 475.046 26.992C475.046 26.7147 475.046 26.4373 475.046 26.16C475.046 25.848 475.029 25.5533 474.994 25.276H483.834C483.834 25.484 483.834 25.692 483.834 25.9C483.834 26.108 483.834 26.2987 483.834 26.472C483.834 28.6213 483.245 30.372 482.066 31.724C480.922 33.0413 479.362 34.012 477.386 34.636C475.41 35.26 473.192 35.572 470.73 35.572ZM501.142 35.572C499.305 35.572 497.572 35.3293 495.942 34.844C494.348 34.324 492.944 33.5613 491.73 32.556C490.552 31.516 489.616 30.1987 488.922 28.604C488.264 27.0093 487.934 25.1027 487.934 22.884C487.934 20.7 488.281 18.8107 488.974 17.216C489.702 15.5867 490.673 14.252 491.886 13.212C493.1 12.172 494.504 11.4093 496.098 10.924C497.693 10.404 499.374 10.144 501.142 10.144C502.945 10.144 504.609 10.3693 506.134 10.82C507.694 11.2707 509.064 11.9467 510.242 12.848C511.456 13.7147 512.392 14.824 513.05 16.176C513.709 17.4933 514.038 19.036 514.038 20.804C514.038 21.1507 514.021 21.532 513.986 21.948C513.986 22.3293 513.952 22.7453 513.882 23.196H496.462C496.462 23.4733 496.445 23.7507 496.41 24.028C496.41 24.2707 496.41 24.5133 496.41 24.756C496.41 27.5987 496.826 29.5573 497.658 30.632C498.49 31.7067 499.652 32.244 501.142 32.244C502.494 32.244 503.5 31.8973 504.158 31.204C504.817 30.5107 505.146 29.384 505.146 27.824C505.146 27.72 505.146 27.5987 505.146 27.46C505.146 27.3213 505.146 27.1827 505.146 27.044H513.622C513.622 27.148 513.622 27.252 513.622 27.356C513.622 27.4253 513.622 27.4947 513.622 27.564C513.622 29.1933 513.085 30.6147 512.01 31.828C510.97 33.0067 509.497 33.9253 507.59 34.584C505.718 35.2427 503.569 35.572 501.142 35.572ZM496.566 20.024H505.354C505.389 19.92 505.406 19.7987 505.406 19.66C505.406 19.5213 505.406 19.4 505.406 19.296C505.406 17.2853 505.008 15.812 504.21 14.876C503.413 13.94 502.338 13.472 500.986 13.472C499.634 13.472 498.56 13.9573 497.762 14.928C496.965 15.864 496.566 17.3547 496.566 19.4C496.566 19.504 496.566 19.608 496.566 19.712C496.566 19.816 496.566 19.92 496.566 20.024Z" fill="url(#paint0_linear_441_483)"/>
<defs>
<linearGradient id="paint0_linear_441_483" x1="123.5" y1="-40.4999" x2="416.307" y2="50.0062" gradientUnits="userSpaceOnUse">
<stop stop-color="#21409A"/>
<stop offset="0.421875" stop-color="#ED1C24"/>
<stop offset="0.614583" stop-color="#FFF200"/>
<stop offset="1" stop-color="#2ABAA7"/>
</linearGradient>
</defs>
</svg>
