<svg width="46" height="46" viewBox="0 0 46 46" fill="none" xmlns="http://www.w3.org/2000/svg">
<path d="M29.1606 29.5713C30.7476 29.5713 32.0356 30.8593 32.0356 32.4463V35.7353L32.0225 35.9127C31.5132 39.4071 28.3754 41.0861 23.11 41.0861C17.8644 41.0861 14.6756 39.4268 13.9872 35.9735L13.9642 35.732V32.4463C13.9642 30.8593 15.2522 29.5713 16.8392 29.5713H29.1606ZM29.9722 19.7141H39.8392C41.4262 19.7141 42.7142 21.0021 42.7142 22.5891V25.8781L42.7011 26.0556C42.1918 29.5499 39.0539 31.2289 33.7886 31.2289L33.5126 31.2256C33.2593 30.3253 32.733 29.5256 32.0063 28.9368C31.2795 28.3481 30.3881 27.9992 29.4547 27.9383L29.1606 27.9284H27.6459C28.5044 27.2362 29.1968 26.3604 29.6721 25.3653C30.1475 24.3702 30.3938 23.2812 30.3928 22.1784C30.3928 21.3143 30.2449 20.4863 29.9722 19.7141ZM6.16064 19.7141H16.0276C15.7549 20.4863 15.6071 21.3143 15.6071 22.1784C15.6071 24.3634 16.5566 26.3299 18.0648 27.682L18.3539 27.9284H16.8392C14.7659 27.9284 13.0179 29.3249 12.4856 31.2306L12.4314 31.2289C7.18579 31.2289 3.997 29.5696 3.30864 26.1164L3.28564 25.8749V22.5891C3.28564 21.0021 4.57364 19.7141 6.16064 19.7141ZM22.9999 16.4284C24.5249 16.4284 25.9875 17.0342 27.0658 18.1126C28.1441 19.1909 28.7499 20.6534 28.7499 22.1784C28.7499 23.7034 28.1441 25.166 27.0658 26.2443C25.9875 27.3226 24.5249 27.9284 22.9999 27.9284C21.4749 27.9284 20.0124 27.3226 18.9341 26.2443C17.8557 25.166 17.2499 23.7034 17.2499 22.1784C17.2499 20.6534 17.8557 19.1909 18.9341 18.1126C20.0124 17.0342 21.4749 16.4284 22.9999 16.4284ZM33.6785 6.57129C35.2035 6.57129 36.666 7.17709 37.7444 8.25543C38.8227 9.33376 39.4285 10.7963 39.4285 12.3213C39.4285 13.8463 38.8227 15.3088 37.7444 16.3872C36.666 17.4655 35.2035 18.0713 33.6785 18.0713C32.1535 18.0713 30.691 17.4655 29.6126 16.3872C28.5343 15.3088 27.9285 13.8463 27.9285 12.3213C27.9285 10.7963 28.5343 9.33376 29.6126 8.25543C30.691 7.17709 32.1535 6.57129 33.6785 6.57129ZM12.3214 6.57129C13.8464 6.57129 15.3089 7.17709 16.3872 8.25543C17.4656 9.33376 18.0714 10.7963 18.0714 12.3213C18.0714 13.8463 17.4656 15.3088 16.3872 16.3872C15.3089 17.4655 13.8464 18.0713 12.3214 18.0713C10.7964 18.0713 9.33383 17.4655 8.2555 16.3872C7.17716 15.3088 6.57136 13.8463 6.57136 12.3213C6.57136 10.7963 7.17716 9.33376 8.2555 8.25543C9.33383 7.17709 10.7964 6.57129 12.3214 6.57129Z" fill="#2ABAA7"/>
</svg>
