<svg width="42" height="42" viewBox="0 0 42 42" fill="none" xmlns="http://www.w3.org/2000/svg">
<g clip-path="url(#clip0_441_492)">
<path d="M21 0C10.8059 0 2.31031 7.26443 0.402465 16.8984H6.23182C8.02795 10.4215 13.9511 5.66016 21 5.66016C25.2374 5.66016 29.0666 7.38199 31.8384 10.1616L25.1016 16.8984H42V0L35.8477 6.15234C32.0479 2.35134 26.7994 0 21 0ZM0 25.1016V42L6.15234 35.8477C9.95211 39.6487 15.2006 42 21 42C31.1941 42 39.6897 34.7356 41.5975 25.1016H35.7682C33.9721 31.5785 28.0489 36.3398 21 36.3398C16.7626 36.3398 12.9334 34.618 10.1616 31.8384L16.8984 25.1016H0V25.1016Z" fill="#21409A"/>
</g>
<defs>
<clipPath id="clip0_441_492">
<rect width="42" height="42" fill="white"/>
</clipPath>
</defs>
</svg>
